<svg width="19" height="16" viewBox="0 0 19 16" fill="none" xmlns="http://www.w3.org/2000/svg">
<path fill-rule="evenodd" clip-rule="evenodd" d="M7.25396 0.2862L0.590858 7.01482C0.565571 7.04035 0.542022 7.06697 0.520211 7.09454C0.216494 7.20689 -1.20401e-05 7.4989 -1.20401e-05 7.84164V8.15796C-1.20401e-05 8.49675 0.211171 8.78583 0.508981 8.90117C0.533878 8.93385 0.56117 8.96527 0.590858 8.99518L7.25396 15.7172C7.6221 16.0883 8.2186 16.0883 8.58674 15.7172C8.95462 15.3458 8.95462 14.744 8.58674 14.3726L3.21578 8.95472H18.2031C18.6432 8.95472 19 8.59834 19 8.15796V7.84164C19 7.40164 18.6432 7.04524 18.2031 7.04524H3.22589L8.58674 1.632C8.95462 1.2602 8.95462 0.65762 8.58674 0.2862C8.2186 -0.0859799 7.6221 -0.0859799 7.25396 0.2862Z" fill="white"/>
</svg>
