<svg width="20" height="21" viewBox="0 0 20 21" fill="none" xmlns="http://www.w3.org/2000/svg">
<path fill-rule="evenodd" clip-rule="evenodd" d="M9.9999 20C6.41259 20 3.32188 17.8971 1.87607 14.8603L4.74869 12.9932C5.55431 15.1134 7.59688 16.6249 9.9999 16.6249C11.3131 16.6249 12.5185 16.1722 13.4754 15.4178L16.1461 17.5715C14.5374 19.0768 12.377 20 9.9999 20Z" fill="#34A853"/>
<path fill-rule="evenodd" clip-rule="evenodd" d="M9.9999 1.99987C12.4856 1.99987 14.7317 3.01124 16.3589 4.64138L13.9715 7.0286C12.9539 6.0103 11.5533 5.37496 9.9999 5.37496C7.67113 5.37496 5.67274 6.7905 4.81829 8.80785L1.94209 6.99162C3.41667 4.0334 6.47014 1.99987 9.9999 1.99987Z" fill="#EA4335"/>
<path fill-rule="evenodd" clip-rule="evenodd" d="M1.88995 14.9069C1.31963 13.7252 1.00006 12.3999 1.00006 11.0001C1.00006 9.52833 1.3556 8.14053 1.98166 6.91418L4.78439 8.89954C4.52261 9.54875 4.3749 10.2565 4.3749 11.0001C4.3749 11.706 4.5108 12.3787 4.74817 13.0013L1.88995 14.9069Z" fill="#FBBC05"/>
<path fill-rule="evenodd" clip-rule="evenodd" d="M15.3667 12.6877H9.9999V9.31256H18.8397C18.9435 9.85967 19 10.423 19 11.0001C19 12.2222 18.7552 13.387 18.3141 14.4496L17.6449 15.748C17.1976 16.4669 16.6527 17.1184 16.0274 17.6829L13.3154 15.5418C14.2736 14.841 15.0029 13.8458 15.3667 12.6877Z" fill="#4285F4"/>
</svg>
