<svg width="161" height="52" viewBox="0 0 161 52" fill="none" xmlns="http://www.w3.org/2000/svg">
<path fill-rule="evenodd" clip-rule="evenodd" d="M20.6099 29.6061C20.6099 29.1068 20.5529 28.6525 20.4407 28.2437C20.3274 27.8349 20.4966 27.6307 20.9488 27.6307C21.5811 27.6307 21.8976 28.3801 21.8976 29.8789C21.8976 32.1497 20.7793 34.2723 18.5429 36.2473C16.3067 38.2226 13.7421 39.2101 10.8509 39.2101C8.99828 39.2101 7.21392 38.757 5.49753 37.8481C1.83785 35.85 0.00817871 32.3763 0.00817871 27.4261C0.00817871 23.9301 0.956839 20.5022 2.85432 17.1414C5.47422 12.5554 9.23545 8.92288 14.138 6.2428C19.0399 3.56435 23.8173 2.22429 28.4712 2.22429C31.8597 2.22429 34.6383 2.9737 36.8071 4.47204C39.2465 6.15268 40.4662 8.65007 40.4662 11.9643C40.4662 16.1874 38.4335 22.8066 34.3669 31.8195C30.3011 40.8344 28.268 45.931 28.268 47.1111C28.268 47.474 28.3801 47.5881 28.6069 47.4517C29.7811 46.6803 35.1687 40.5158 44.7698 28.9588C54.3697 17.403 61.0448 10.2617 64.7956 7.53697C68.1386 5.03996 70.9287 3.16707 73.1652 1.91762C75.4015 0.669681 77.6941 0.0447388 80.0436 0.0447388C80.6759 0.0447388 81.1504 0.0682827 81.4668 0.112941C82.6865 0.204633 83.2964 0.839187 83.2964 2.01973C83.2964 2.61039 83.0932 2.9055 82.6865 2.9055C82.6412 2.9055 82.3246 2.80338 81.7378 2.59883C81.1504 2.3946 80.6536 2.29249 80.2469 2.29249C73.921 2.29249 65.4054 8.03749 54.6979 19.5251C50.6762 23.8399 45.7862 29.6515 40.026 36.9623C34.2656 44.2739 30.8652 48.2234 29.8266 48.8136C26.1671 50.9023 24.1107 51.9476 23.6596 51.9476C23.5242 51.9476 23.4564 51.7195 23.4564 51.2664C23.4564 49.7676 24.7206 45.9533 27.2512 39.8231C28.2901 37.4624 29.8033 33.9205 31.7919 29.1973L34.9092 20.0017C35.9937 16.9144 36.5357 14.6667 36.5357 13.2585C36.5357 10.1254 35.6315 7.74157 33.825 6.10683C32.0175 4.47204 29.4199 3.65448 26.0315 3.65448C22.643 3.65448 19.006 4.85814 15.1206 7.26497C10.9187 9.98895 7.77823 13.3502 5.70079 17.3456C3.62221 21.3421 2.58325 24.7253 2.58325 27.4943C2.58325 30.2645 3.14772 32.4445 4.27747 34.0334C6.12948 36.6217 8.5916 37.9159 11.6643 37.9159C14.0131 37.9159 16.0917 37.1326 17.8992 35.566C19.7058 33.9995 20.6099 32.0133 20.6099 29.6061ZM59.5087 21.2281C59.5087 19.957 60.3664 19.3209 62.084 19.3209C62.7616 19.3209 63.4056 19.5367 64.0153 19.9678C64.6253 20.4001 64.9303 20.9106 64.9303 21.5005C64.9303 22.0911 64.6476 22.602 64.083 23.0328C63.5177 23.465 62.8972 23.6804 62.2194 23.6804C61.5417 23.6804 60.92 23.4311 60.3558 22.931C59.7902 22.4317 59.5087 21.8646 59.5087 21.2281ZM53.2062 47.2475C53.7926 46.9751 54.3126 46.7366 54.7648 46.5324C55.216 46.3278 55.7359 45.9992 56.3234 45.5445C56.9102 45.0914 57.3623 44.7509 57.6787 44.5228C57.9944 44.2962 58.4582 43.899 59.0683 43.3311C59.6782 42.7635 60.0954 42.3775 60.3219 42.1733C60.5422 41.9735 60.9463 41.5686 61.5331 40.9569C61.4032 41.5233 61.3382 42.0534 61.3382 42.5474C61.3382 43.5927 61.6093 44.5466 62.1516 45.4085C62.8294 46.6341 63.7547 47.2475 64.9303 47.2475H66.0142C68.5441 47.2475 71.5939 45.0456 75.1634 40.6403C78.1897 36.918 79.7038 34.2611 79.7038 32.671C79.7038 32.4445 79.6805 32.2403 79.636 32.0584C83.16 30.6051 84.9442 29.4932 84.9899 28.7207C83.3178 29.5833 82.0757 30.0149 81.2625 30.0149C80.4493 30.0149 80.0195 29.9467 79.9748 29.8107C80.2003 28.812 80.3139 27.9944 80.3139 27.3583C80.3139 24.906 79.1618 23.6804 76.8576 23.6804C74.4178 23.6804 71.2211 26.1439 67.2682 31.0702C64.9981 33.8994 63.38 36.3651 62.4135 38.4678C60.3365 40.7844 57.6971 42.9391 54.4939 44.9315C52.8675 45.9768 51.5796 46.4985 50.6308 46.4985C49.501 46.4985 48.9365 45.6702 48.9365 44.0122C48.9365 42.3548 50.6308 39.3237 54.0195 34.9187C54.606 34.1474 55.216 33.3414 55.8492 32.5007C56.4813 31.6608 56.978 31.0139 57.3402 30.5597C57.7012 30.1062 58.0399 29.6858 58.3568 29.2994C58.6722 28.9145 58.9433 28.562 59.1698 28.2437C59.1698 27.8808 58.8872 27.5175 58.3229 27.1538C57.7571 26.7912 57.2491 26.609 56.7979 26.609C55.1715 26.6548 53.0251 28.8463 50.3599 33.1823C47.6935 37.5191 46.3615 40.9126 46.3615 43.365C46.3615 46.3621 47.5137 47.8605 49.8177 47.8605C51.1274 47.8605 52.2575 47.6563 53.2062 47.2475ZM73.5367 39.8912C70.5549 43.4332 68.0918 45.204 66.15 45.204C65.0656 45.204 64.5236 44.3421 64.5236 42.6156C64.5236 40.8907 65.9348 38.2118 68.7593 34.5782C71.582 30.9457 73.7623 29.1295 75.2987 29.1295C76.3831 30.8097 77.2863 31.8538 78.0095 32.2622C78.0095 33.8065 76.5187 36.3493 73.5367 39.8912ZM86.3785 35.4636C85.813 36.327 85.3957 36.9962 85.1248 37.4732C84.8538 37.9498 84.537 38.5743 84.1758 39.3465C83.4071 40.8907 83.0239 42.3432 83.0239 43.7056C83.0239 45.0679 83.7691 45.7491 85.2604 45.7491C86.7512 45.7491 88.6711 44.955 91.0205 43.365C92.0923 42.6402 93.15 41.7969 94.1938 40.8353C94.85 38.1549 96.7518 35.1611 99.8982 31.8538C103.873 27.6762 107.443 25.5872 110.606 25.5872C111.644 25.5872 112.492 25.8712 113.147 26.4386C113.802 27.0074 114.13 27.6989 114.13 28.5161C114.13 31.0601 112.221 33.4886 108.403 35.8046C104.585 38.1205 101.479 39.2783 99.085 39.2783C98.7228 39.2783 98.4074 39.2336 98.136 39.1419C97.4585 40.3682 97.1198 41.662 97.1198 43.0244C97.1198 45.3862 98.2378 46.5667 100.474 46.5667C102.711 46.5667 105.613 45.0456 109.183 42.0026C110.815 40.6846 112.306 39.3184 113.653 37.9041C113.99 37.0708 114.397 36.1779 114.874 35.2255C116.501 31.9794 117.743 29.5614 118.602 27.9713C117.968 28.1074 117.426 28.1756 116.975 28.1756C115.664 28.1756 115.01 27.6539 115.01 26.609C115.01 25.8372 115.552 25.2924 116.636 24.9742C116.772 24.9742 116.975 24.9519 117.247 24.906H121.177C121.99 23.8619 122.916 22.6586 123.956 21.2963C125.22 19.6615 126.079 18.8439 126.531 18.8439C126.982 18.8439 127.547 19.0262 128.225 19.3891C128.903 19.7528 129.242 20.1839 129.242 20.6829C129.242 21.1834 128.157 22.6586 125.988 25.1106C127.163 25.1564 128.699 25.1788 130.597 25.1788L135.696 25.1075C135.817 25.0594 135.947 25.0149 136.086 24.9742C136.222 24.9742 136.425 24.9519 136.696 24.906H140.627C141.44 23.8619 142.365 22.6586 143.405 21.2963C144.669 19.6615 145.528 18.8439 145.98 18.8439C146.431 18.8439 146.997 19.0262 147.675 19.3891C148.352 19.7528 148.691 20.1839 148.691 20.6829C148.691 21.1834 147.607 22.6586 145.438 25.1106C146.613 25.1564 148.149 25.1788 150.047 25.1788L159.805 25.0424C159.941 25.1337 160.008 25.2019 160.008 25.2466C160.008 25.6554 157.196 26.2237 151.571 26.9495C145.946 27.6762 142.907 28.1074 142.456 28.2437C141.598 29.0162 140.017 31.3206 137.712 35.1573C135.408 38.9951 134.256 41.7984 134.256 43.5695C134.256 45.2498 135.408 46.0897 137.712 46.0897C138.797 46.0897 140.22 45.7491 141.982 45.0679C143.744 44.3872 145.099 43.7514 146.048 43.1608C148.578 41.5719 151.289 39.2336 154.18 36.1451C154.813 35.5098 155.241 35.1912 155.468 35.1912C155.604 35.1912 155.671 35.3276 155.671 35.6C155.671 35.8723 155.332 36.4175 154.655 37.2347C152.305 40.1413 149.662 42.4792 146.726 44.2508C143.202 46.4303 139.836 47.5199 136.628 47.5199C135.227 47.5199 134.087 47.2136 133.206 46.6006C132.325 45.9872 131.884 44.7509 131.884 42.888C131.884 42.1779 132.003 41.3669 132.24 40.4549C130.69 41.924 129.036 43.1891 127.276 44.2508C123.752 46.4303 120.386 47.5199 117.179 47.5199C115.778 47.5199 114.637 47.2136 113.756 46.6006C112.875 45.9872 112.435 44.7509 112.435 42.888C112.435 42.2195 112.54 41.4615 112.75 40.6141C111.392 41.9016 109.932 43.1138 108.369 44.2508C104.935 46.7482 102.021 47.9968 99.6271 47.9968C99.1295 47.9968 98.6784 47.9287 98.2718 47.7923C95.3811 46.9751 93.9345 45.3403 93.9345 42.888C93.9345 42.8339 93.9351 42.7797 93.9362 42.7254C90.6843 45.7405 87.8826 47.2475 85.5312 47.2475C84.0404 47.2475 82.775 46.8961 81.7364 46.1918C80.6964 45.4883 80.1778 44.3983 80.1778 42.9223C80.1778 41.447 80.561 39.7325 81.3297 37.7799C82.6396 34.6922 84.7405 30.8097 87.6321 26.132C92.9182 17.5051 96.6678 13.1907 98.8819 13.1907C99.3329 13.1907 99.7969 13.361 100.271 13.7012C100.746 14.0418 101.005 14.4166 101.051 14.8254C100.011 16.2332 98.0114 18.9352 95.053 22.931C92.0934 26.9272 90.0487 29.7995 88.9196 31.5471C87.7899 33.2959 86.9428 34.6017 86.3785 35.4636ZM133.158 37.7692C133.484 36.9747 133.872 36.1267 134.324 35.2255C135.95 31.9794 137.192 29.5614 138.051 27.9713C137.418 28.1074 136.876 28.1756 136.425 28.1756C135.125 28.1756 134.47 27.6622 134.46 26.634C133.743 26.7357 132.964 26.8408 132.122 26.9495C126.497 27.6762 123.458 28.1074 123.007 28.2437C122.148 29.0162 120.567 31.3206 118.263 35.1573C115.959 38.9951 114.806 41.7984 114.806 43.5695C114.806 45.2498 115.959 46.0897 118.263 46.0897C119.347 46.0897 120.77 45.7491 122.532 45.0679C124.294 44.3872 125.65 43.7514 126.599 43.1608C128.664 41.8634 130.85 40.0663 133.158 37.7692ZM100.034 37.7799C101.75 37.7799 104.043 36.8598 106.912 35.0209C109.781 33.1823 111.577 31.1727 112.3 28.9931C112.39 28.7662 112.436 28.562 112.436 28.3801C112.436 27.8349 111.859 27.5625 110.708 27.5625C109.555 27.5625 107.917 28.4479 105.794 30.2191C102.948 32.5809 100.734 35.0548 99.1528 37.6435C99.4237 37.7348 99.7171 37.7799 100.034 37.7799Z" fill="#EEEEEE"/>
<path fill-rule="evenodd" clip-rule="evenodd" d="M20.6099 29.6061C20.6099 29.1068 20.5529 28.6525 20.4407 28.2437C20.3274 27.8349 20.4966 27.6307 20.9488 27.6307C21.5811 27.6307 21.8976 28.3801 21.8976 29.8789C21.8976 32.1497 20.7793 34.2723 18.5429 36.2473C16.3067 38.2226 13.7421 39.2101 10.8509 39.2101C8.99828 39.2101 7.21392 38.757 5.49753 37.8481C1.83785 35.85 0.00817871 32.3763 0.00817871 27.4261C0.00817871 23.9301 0.956839 20.5022 2.85432 17.1414C5.47422 12.5554 9.23545 8.92288 14.138 6.2428C19.0399 3.56435 23.8173 2.22429 28.4712 2.22429C31.8597 2.22429 34.6383 2.9737 36.8071 4.47204C39.2465 6.15268 40.4662 8.65007 40.4662 11.9643C40.4662 16.1874 38.4335 22.8066 34.3669 31.8195C30.3011 40.8344 28.268 45.931 28.268 47.1111C28.268 47.474 28.3801 47.5881 28.6069 47.4517C29.7811 46.6803 35.1687 40.5158 44.7698 28.9588C54.3697 17.403 61.0448 10.2617 64.7956 7.53697C68.1386 5.03996 70.9287 3.16707 73.1652 1.91762C75.4015 0.669681 77.6941 0.0447388 80.0436 0.0447388C80.6759 0.0447388 81.1504 0.0682827 81.4668 0.112941C82.6865 0.204633 83.2964 0.839187 83.2964 2.01973C83.2964 2.61039 83.0932 2.9055 82.6865 2.9055C82.6412 2.9055 82.3246 2.80338 81.7378 2.59883C81.1504 2.3946 80.6536 2.29249 80.2469 2.29249C73.921 2.29249 65.4054 8.03749 54.6979 19.5251C50.6762 23.8399 45.7862 29.6515 40.026 36.9623C34.2656 44.2739 30.8652 48.2234 29.8266 48.8136C26.1671 50.9023 24.1107 51.9476 23.6596 51.9476C23.5242 51.9476 23.4564 51.7195 23.4564 51.2664C23.4564 49.7676 24.7206 45.9533 27.2512 39.8231C28.2901 37.4624 29.8033 33.9205 31.7919 29.1973L34.9092 20.0017C35.9937 16.9144 36.5357 14.6667 36.5357 13.2585C36.5357 10.1254 35.6315 7.74157 33.825 6.10683C32.0175 4.47204 29.4199 3.65448 26.0315 3.65448C22.643 3.65448 19.006 4.85814 15.1206 7.26497C10.9187 9.98895 7.77823 13.3502 5.70079 17.3456C3.62221 21.3421 2.58325 24.7253 2.58325 27.4943C2.58325 30.2645 3.14772 32.4445 4.27747 34.0334C6.12948 36.6217 8.5916 37.9159 11.6643 37.9159C14.0131 37.9159 16.0917 37.1326 17.8992 35.566C19.7058 33.9995 20.6099 32.0133 20.6099 29.6061ZM59.5087 21.2281C59.5087 19.957 60.3664 19.3209 62.084 19.3209C62.7616 19.3209 63.4056 19.5367 64.0153 19.9678C64.6253 20.4001 64.9303 20.9106 64.9303 21.5005C64.9303 22.0911 64.6476 22.602 64.083 23.0328C63.5177 23.465 62.8972 23.6804 62.2194 23.6804C61.5417 23.6804 60.92 23.4311 60.3558 22.931C59.7902 22.4317 59.5087 21.8646 59.5087 21.2281ZM53.2062 47.2475C53.7926 46.9751 54.3126 46.7366 54.7648 46.5324C55.216 46.3278 55.7359 45.9992 56.3234 45.5445C56.9102 45.0914 57.3623 44.7509 57.6787 44.5228C57.9944 44.2962 58.4582 43.899 59.0683 43.3311C59.6782 42.7635 60.0954 42.3775 60.3219 42.1733C60.5422 41.9735 60.9463 41.5686 61.5331 40.9569C61.4032 41.5233 61.3382 42.0534 61.3382 42.5474C61.3382 43.5927 61.6093 44.5466 62.1516 45.4085C62.8294 46.6341 63.7547 47.2475 64.9303 47.2475H66.0142C68.5441 47.2475 71.5939 45.0456 75.1634 40.6403C78.1897 36.918 79.7038 34.2611 79.7038 32.671C79.7038 32.4445 79.6805 32.2403 79.636 32.0584C83.16 30.6051 84.9442 29.4932 84.9899 28.7207C83.3178 29.5833 82.0757 30.0149 81.2625 30.0149C80.4493 30.0149 80.0195 29.9467 79.9748 29.8107C80.2003 28.812 80.3139 27.9944 80.3139 27.3583C80.3139 24.906 79.1618 23.6804 76.8576 23.6804C74.4178 23.6804 71.2211 26.1439 67.2682 31.0702C64.9981 33.8994 63.38 36.3651 62.4135 38.4678C60.3365 40.7844 57.6971 42.9391 54.4939 44.9315C52.8675 45.9768 51.5796 46.4985 50.6308 46.4985C49.501 46.4985 48.9365 45.6702 48.9365 44.0122C48.9365 42.3548 50.6308 39.3237 54.0195 34.9187C54.606 34.1474 55.216 33.3414 55.8492 32.5007C56.4813 31.6608 56.978 31.0139 57.3402 30.5597C57.7012 30.1062 58.0399 29.6858 58.3568 29.2994C58.6722 28.9145 58.9433 28.562 59.1698 28.2437C59.1698 27.8808 58.8872 27.5175 58.3229 27.1538C57.7571 26.7912 57.2491 26.609 56.7979 26.609C55.1715 26.6548 53.0251 28.8463 50.3599 33.1823C47.6935 37.5191 46.3615 40.9126 46.3615 43.365C46.3615 46.3621 47.5137 47.8605 49.8177 47.8605C51.1274 47.8605 52.2575 47.6563 53.2062 47.2475ZM73.5367 39.8912C70.5549 43.4332 68.0918 45.204 66.15 45.204C65.0656 45.204 64.5236 44.3421 64.5236 42.6156C64.5236 40.8907 65.9348 38.2118 68.7593 34.5782C71.582 30.9457 73.7623 29.1295 75.2987 29.1295C76.3831 30.8097 77.2863 31.8538 78.0095 32.2622C78.0095 33.8065 76.5187 36.3493 73.5367 39.8912ZM86.3785 35.4636C85.813 36.327 85.3957 36.9962 85.1248 37.4732C84.8538 37.9498 84.537 38.5743 84.1758 39.3465C83.4071 40.8907 83.0239 42.3432 83.0239 43.7056C83.0239 45.0679 83.7691 45.7491 85.2604 45.7491C86.7512 45.7491 88.6711 44.955 91.0205 43.365C92.0923 42.6402 93.15 41.7969 94.1938 40.8353C94.85 38.1549 96.7518 35.1611 99.8982 31.8538C103.873 27.6762 107.443 25.5872 110.606 25.5872C111.644 25.5872 112.492 25.8712 113.147 26.4386C113.802 27.0074 114.13 27.6989 114.13 28.5161C114.13 31.0601 112.221 33.4886 108.403 35.8046C104.585 38.1205 101.479 39.2783 99.085 39.2783C98.7228 39.2783 98.4074 39.2336 98.136 39.1419C97.4585 40.3682 97.1198 41.662 97.1198 43.0244C97.1198 45.3862 98.2378 46.5667 100.474 46.5667C102.711 46.5667 105.613 45.0456 109.183 42.0026C110.815 40.6846 112.306 39.3184 113.653 37.9041C113.99 37.0708 114.397 36.1779 114.874 35.2255C116.501 31.9794 117.743 29.5614 118.602 27.9713C117.968 28.1074 117.426 28.1756 116.975 28.1756C115.664 28.1756 115.01 27.6539 115.01 26.609C115.01 25.8372 115.552 25.2924 116.636 24.9742C116.772 24.9742 116.975 24.9519 117.247 24.906H121.177C121.99 23.8619 122.916 22.6586 123.956 21.2963C125.22 19.6615 126.079 18.8439 126.531 18.8439C126.982 18.8439 127.547 19.0262 128.225 19.3891C128.903 19.7528 129.242 20.1839 129.242 20.6829C129.242 21.1834 128.157 22.6586 125.988 25.1106C127.163 25.1564 128.699 25.1788 130.597 25.1788L135.696 25.1075C135.817 25.0594 135.947 25.0149 136.086 24.9742C136.222 24.9742 136.425 24.9519 136.696 24.906H140.627C141.44 23.8619 142.365 22.6586 143.405 21.2963C144.669 19.6615 145.528 18.8439 145.98 18.8439C146.431 18.8439 146.997 19.0262 147.675 19.3891C148.352 19.7528 148.691 20.1839 148.691 20.6829C148.691 21.1834 147.607 22.6586 145.438 25.1106C146.613 25.1564 148.149 25.1788 150.047 25.1788L159.805 25.0424C159.941 25.1337 160.008 25.2019 160.008 25.2466C160.008 25.6554 157.196 26.2237 151.571 26.9495C145.946 27.6762 142.907 28.1074 142.456 28.2437C141.598 29.0162 140.017 31.3206 137.712 35.1573C135.408 38.9951 134.256 41.7984 134.256 43.5695C134.256 45.2498 135.408 46.0897 137.712 46.0897C138.797 46.0897 140.22 45.7491 141.982 45.0679C143.744 44.3872 145.099 43.7514 146.048 43.1608C148.578 41.5719 151.289 39.2336 154.18 36.1451C154.813 35.5098 155.241 35.1912 155.468 35.1912C155.604 35.1912 155.671 35.3276 155.671 35.6C155.671 35.8723 155.332 36.4175 154.655 37.2347C152.305 40.1413 149.662 42.4792 146.726 44.2508C143.202 46.4303 139.836 47.5199 136.628 47.5199C135.227 47.5199 134.087 47.2136 133.206 46.6006C132.325 45.9872 131.884 44.7509 131.884 42.888C131.884 42.1779 132.003 41.3669 132.24 40.4549C130.69 41.924 129.036 43.1891 127.276 44.2508C123.752 46.4303 120.386 47.5199 117.179 47.5199C115.778 47.5199 114.637 47.2136 113.756 46.6006C112.875 45.9872 112.435 44.7509 112.435 42.888C112.435 42.2195 112.54 41.4615 112.75 40.6141C111.392 41.9016 109.932 43.1138 108.369 44.2508C104.935 46.7482 102.021 47.9968 99.6271 47.9968C99.1295 47.9968 98.6784 47.9287 98.2718 47.7923C95.3811 46.9751 93.9345 45.3403 93.9345 42.888C93.9345 42.8339 93.9351 42.7797 93.9362 42.7254C90.6843 45.7405 87.8826 47.2475 85.5312 47.2475C84.0404 47.2475 82.775 46.8961 81.7364 46.1918C80.6964 45.4883 80.1778 44.3983 80.1778 42.9223C80.1778 41.447 80.561 39.7325 81.3297 37.7799C82.6396 34.6922 84.7405 30.8097 87.6321 26.132C92.9182 17.5051 96.6678 13.1907 98.8819 13.1907C99.3329 13.1907 99.7969 13.361 100.271 13.7012C100.746 14.0418 101.005 14.4166 101.051 14.8254C100.011 16.2332 98.0114 18.9352 95.053 22.931C92.0934 26.9272 90.0487 29.7995 88.9196 31.5471C87.7899 33.2959 86.9428 34.6017 86.3785 35.4636ZM133.158 37.7692C133.484 36.9747 133.872 36.1267 134.324 35.2255C135.95 31.9794 137.192 29.5614 138.051 27.9713C137.418 28.1074 136.876 28.1756 136.425 28.1756C135.125 28.1756 134.47 27.6622 134.46 26.634C133.743 26.7357 132.964 26.8408 132.122 26.9495C126.497 27.6762 123.458 28.1074 123.007 28.2437C122.148 29.0162 120.567 31.3206 118.263 35.1573C115.959 38.9951 114.806 41.7984 114.806 43.5695C114.806 45.2498 115.959 46.0897 118.263 46.0897C119.347 46.0897 120.77 45.7491 122.532 45.0679C124.294 44.3872 125.65 43.7514 126.599 43.1608C128.664 41.8634 130.85 40.0663 133.158 37.7692ZM100.034 37.7799C101.75 37.7799 104.043 36.8598 106.912 35.0209C109.781 33.1823 111.577 31.1727 112.3 28.9931C112.39 28.7662 112.436 28.562 112.436 28.3801C112.436 27.8349 111.859 27.5625 110.708 27.5625C109.555 27.5625 107.917 28.4479 105.794 30.2191C102.948 32.5809 100.734 35.0548 99.1528 37.6435C99.4237 37.7348 99.7171 37.7799 100.034 37.7799Z" fill="url(#paint0_linear_0_3706)"/>
<defs>
<linearGradient id="paint0_linear_0_3706" x1="152.907" y1="54.2512" x2="154.412" y2="1.98275" gradientUnits="userSpaceOnUse">
<stop stop-opacity="0.01"/>
<stop offset="1" stop-opacity="0.1"/>
</linearGradient>
</defs>
</svg>
